#!OML:ASF F:\VICON\USERDATA\INSTALL\rory3\rory3.ASF
:FULLY-SPECIFIED
:DEGREES
773
root 0.399545 15.8513 -8.44414 12.7966 -7.74693 359.248
lowerback 4.11476 0.386512 -1.37145
upperback -2.56602 0.508663 1.70843
thorax -4.99357 0.330347 2.49861
lowerneck -13.6562 1.40044 1.97999
upperneck 38.0797 2.43609 -2.66714
head 15.8356 0.908517 -1.09661
rclavicle 6.06293e-015 5.96354e-015
rhumerus -35.7482 -13.0971 -64.6883
rradius 42.1919
rwrist -57.1011
rhand -30.493 13.4054
rfingers 7.12502
rthumb -3.7935 -16.5405
lclavicle 6.06293e-015 5.96354e-015
lhumerus -80.1267 -28.4392 125.259
lradius 51.5523
lwrist 19.7179
lhand 4.2014 28.9375
lfingers 7.12502
lthumb 29.608 56.595
rfemur -60.1534 -6.01312 15.7436
rtibia 36.0028
rfoot 7.23868 -33.4717
rtoes -18.6016
lfemur -31.8703 5.9912 -31.9109
ltibia 50.1367
lfoot -36.0066 21.7696
ltoes -5.15486
774
root 0.352737 15.8489 -8.34828 12.5241 -7.59958 359.556
lowerback 4.32883 0.307587 -1.78061
upperback -2.47975 0.369431 1.59443
thorax -5.02043 0.272584 2.62203
lowerneck -13.685 1.40006 1.94991
upperneck 38.015 2.37359 -2.49147
head 15.8036 0.901593 -1.02515
rclavicle 3.57812e-015 5.1684e-015
rhumerus -36.3419 -10.0984 -66.031
rradius 44.1799
rwrist -59.296
rhand -30.7664 12.613
rfingers 7.12502
rthumb -4.05752 -17.3281
lclavicle 3.57812e-015 5.1684e-015
lhumerus -82.1127 -29.8246 127.59
lradius 54.9413
lwrist 19.9764
lhand 5.57708 28.958
lfingers 7.12502
lthumb 30.9202 56.3746
rfemur -60.1432 -5.93975 15.8709
rtibia 34.8784
rfoot 8.091 -34.3812
rtoes -15.3632
lfemur -30.968 6.17157 -32.0073
ltibia 49.7313
lfoot -36.1217 21.4369
ltoes -5.63667
775
root 0.305496 15.8464 -8.25078 12.1467 -7.22044 359.763
lowerback 4.53875 0.160019 -1.99348
upperback -2.31575 0.151756 1.52505
thorax -4.95635 0.16786 2.68841
lowerneck -13.691 1.4486 2.01602
upperneck 37.9339 2.40249 -2.43524
head 15.7649 0.930818 -1.00677
rclavicle 1.6201e-014 -4.37326e-015
rhumerus -37.0376 -7.37572 -67.1293
rradius 46.0811
rwrist -61.5722
rhand -30.3553 12.288
rfingers 7.12502
rthumb -3.66055 -17.6603
lclavicle 1.6201e-014 -4.37326e-015
lhumerus -83.9451 -31.0831 129.465
lradius 58.3306
lwrist 19.8342
lhand 7.10241 28.952
lfingers 7.12502
lthumb 32.3732 56.0824
rfemur -59.867 -5.80142 15.9561
rtibia 33.8519
rfoot 8.26707 -36.117
rtoes -12.0807
lfemur -29.8849 6.1814 -31.9239
ltibia 49.2905
lfoot -36.1646 21.1798
ltoes -6.27017
776
root 0.258881 15.848 -8.14623 11.7408 -6.73862 360.066
lowerback 4.69628 0.00777983 -2.28004
upperback -2.16545 -0.077134 1.44686
thorax -4.87513 0.0593755 2.78858
lowerneck -13.5892 1.46045 1.99509
upperneck 37.9187 2.37861 -2.30705
head 15.7289 0.936337 -0.95209
rclavicle 7.25564e-015 2.0276e-014
rhumerus -37.8373 -4.80645 -68.0811
rradius 47.9197
rwrist -63.8322
rhand -29.6194 11.8894
rfingers 7.12502
rthumb -2.94992 -18.0699
lclavicle 7.25564e-015 2.0276e-014
lhumerus -86.0302 -32.4077 131.63
lradius 61.448
lwrist 19.8424
lhand 7.86576 28.3955
lfingers 7.12502
lthumb 33.0994 55.3747
rfemur -59.5554 -5.92665 16.0507
rtibia 33.0892
rfoot 7.29804 -37.8082
rtoes -6.23924
lfemur -28.6614 6.06012 -31.9259
ltibia 48.7662
lfoot -36.2328 20.9308
ltoes -6.76848
777
root 0.214231 15.8549 -8.03539 11.3042 -6.45336 360.321
lowerback 4.93785 -0.0925476 -2.59895
upperback -2.01967 -0.238705 1.42198
thorax -4.84943 -0.0132592 2.95773
lowerneck -13.4998 1.46721 1.82609
upperneck 37.8437 2.37366 -2.13295
head 15.6632 0.934784 -0.847451
rclavicle -9.44227e-015 -6.36111e-015
rhumerus -38.5664 -2.4517 -68.7831
rradius 49.5663
rwrist -65.8558
rhand -28.6075 11.1704
rfingers 7.12502
rthumb -1.97263 -18.8002
lclavicle -9.44227e-015 -6.36111e-015
lhumerus -88.4885 -33.9032 134.507
lradius 64.1963
lwrist 20.5007
lhand 7.61637 27.4369
lfingers 7.12502
lthumb 32.8622 54.4661
rfemur -59.2416 -6.13825 16.3779
rtibia 32.4864
rfoot 6.77446 -38.9268
rtoes -1.11786
lfemur -27.4354 6.13734 -31.9008
ltibia 48.242
lfoot -36.2315 20.7289
ltoes -7.57513
778
root 0.165028 15.8547 -7.9277 10.9032 -6.08896 360.643
lowerback 5.14826 -0.249122 -2.96767
upperback -1.89698 -0.481732 1.34898
thorax -4.82232 -0.125665 3.11284
lowerneck -13.0409 1.47481 1.53658
upperneck 37.426 2.34363 -1.80545
head 15.3329 0.930199 -0.660082
rclavicle -2.78299e-015 6.36111e-015
rhumerus -39.3012 -0.307 -69.456
rradius 51.0442
rwrist -67.4169
rhand -27.3418 10.3924
rfingers 7.12502
rthumb -0.75022 -19.5861
lclavicle -2.78299e-015 6.36111e-015
lhumerus -89.9582 -34.6929 135.542
lradius 67.2497
lwrist 20.1163
lhand 8.76446 27.095
lfingers 7.12502
lthumb 33.9535 53.8891
rfemur -58.9523 -6.00789 16.3112
rtibia 31.9971
rfoot 5.77242 -40.2486
rtoes 3.20887
lfemur -26.2836 6.10341 -31.9072
ltibia 47.7331
lfoot -36.1126 20.5596
ltoes -8.92604
779
root 0.110438 15.8499 -7.82053 10.6372 -5.5695 361.048
lowerback 5.21081 -0.485913 -3.40594
upperback -1.83517 -0.835692 1.23996
thorax -4.76306 -0.291747 3.27878
lowerneck -12.3324 1.44497 1.15809
upperneck 36.8668 2.2369 -1.36466
head 14.8771 0.898033 -0.42668
rclavicle -3.27995e-015 1.27222e-014
rhumerus -40.1539 1.77325 -70.108
rradius 52.6578
rwrist -68.8272
rhand -26.1341 9.20313
rfingers 7.12502
rthumb 0.416238 -20.7762
lclavicle -3.27995e-015 1.27222e-014
lhumerus -91.5952 -35.6844 136.815
lradius 70.0586
lwrist 20.2049
lhand 10.2292 27.0077
lfingers 7.12502
lthumb 35.3437 53.4828
rfemur -58.6745 -5.514 15.7315
rtibia 31.4942
rfoot 2.22772 -41.9979
rtoes 9.93051
lfemur -25.2654 5.88489 -31.9716
ltibia 47.2406
lfoot -36.1267 20.2781
ltoes -9.72365
780
root 0.0550713 15.85 -7.71204 10.3865 -5.16072 361.237
lowerback 5.21927 -0.644126 -3.63635
upperback -1.72857 -1.06704 1.13824
thorax -4.63593 -0.405743 3.32204
lowerneck -12.5392 1.5897 1.86612
upperneck 37.0174 2.41956 -1.82042
head 15.022 1.01016 -0.713384
rclavicle 7.35503e-015 -2.98177e-015
rhumerus -40.9727 3.5544 -70.7201
rradius 54.1798
rwrist -70.1891
rhand -25.1848 8.05637
rfingers 7.12502
rthumb 1.33311 -21.9192
lclavicle 7.35503e-015 -2.98177e-015
lhumerus -93.4387 -36.9619 138.268
lradius 72.7854
lwrist 20.3871
lhand 11.3263 26.5307
lfingers 7.12502
lthumb 36.3832 52.7522
rfemur -58.2991 -4.61976 15.1722
rtibia 31.0087
rfoot -4.69239 -43.5279
rtoes 19.4281
lfemur -24.2377 5.82639 -31.8299
ltibia 46.7115
lfoot -36.0755 20.054
ltoes -10.414
781
root 0.00449839 15.8568 -7.59411 10.1584 -4.65909 361.269
lowerback 5.09598 -0.861019 -3.65416
upperback -1.56331 -1.35265 1.10691
thorax -4.36976 -0.556252 3.31868
lowerneck -12.5661 1.76962 2.28536
upperneck 36.8656 2.64589 -2.03855
head 14.9732 1.13509 -0.841535
rclavicle 6.36111e-015 3.97569e-016
rhumerus -41.4388 5.17879 -71.188
rradius 55.1793
rwrist -71.0807
rhand -23.6536 7.28017
rfingers 7.12502
rthumb 2.81188 -22.681
lclavicle 6.36111e-015 3.97569e-016
lhumerus -95.1962 -38.2389 139.723
lradius 75.4278
lwrist 20.4566
lhand 11.939 25.3542
lfingers 7.12502
lthumb 36.963 51.4282
rfemur -57.8822 -3.98819 14.9518
rtibia 30.6349
rfoot -12.7442 -43.5838
rtoes 28.4674
lfemur -23.1047 5.72825 -31.5227
ltibia 46.0275
lfoot -35.9154 19.8908
ltoes -11.1358
782
root -0.0440456 15.8618 -7.4654 9.9051 -4.09234 361.448
lowerback 4.97028 -1.13482 -3.77679
upperback -1.40429 -1.72131 1.06235
thorax -4.10002 -0.745712 3.36517
lowerneck -12.6275 1.94633 2.50067
upperneck 36.6883 2.88108 -2.1402
head 14.9163 1.25058 -0.882502
rclavicle 2.1916e-014 -7.95139e-016
rhumerus -41.8163 6.75941 -71.5098
rradius 56.0576
rwrist -71.7952
rhand -21.7422 6.33684
rfingers 7.12502
rthumb 4.65768 -23.592
lclavicle 2.1916e-014 -7.95139e-016
lhumerus -96.7041 -39.3822 140.857
lradius 77.9074
lwrist 20.2738
lhand 12.8113 24.3559
lfingers 7.12502
lthumb 37.7876 50.2125
rfemur -57.408 -3.49682 14.5962
rtibia 30.3347
rfoot -19.575 -42.4089
rtoes 35.6885
lfemur -21.7617 5.5541 -31.369
ltibia 45.1647
lfoot -35.892 19.5115
ltoes -11.6118
783
root -0.0956523 15.8677 -7.33067 9.81117 -3.60756 361.941
lowerback 4.6465 -1.33439 -4.25196
upperback -1.33609 -2.00804 0.947541
thorax -3.81074 -0.886562 3.52341
lowerneck -12.6278 2.01326 2.60869
upperneck 36.5914 2.96532 -2.18517
head 14.876 1.29559 -0.906023
rclavicle 1.98288e-014 7.7526e-015
rhumerus -42.3697 8.15544 -71.6543
rradius 57.001
rwrist -72.7742
rhand -19.6554 5.50875
rfingers 7.12502
rthumb 6.67246 -24.3661
lclavicle 1.98288e-014 7.7526e-015
lhumerus -98.1061 -40.5824 141.8
lradius 80.2202
lwrist 20.1833
lhand 14.0613 23.7156
lfingers 7.12502
lthumb 38.9673 49.245
rfemur -57.0618 -2.61148 13.5521
rtibia 30.0341
rfoot -24.8758 -40.9838
rtoes 40.8402
lfemur -20.4829 5.34042 -31.5998
ltibia 44.1712
lfoot -35.7812 19.4169
ltoes -13.0277
784
root -0.145984 15.8803 -7.19034 9.83261 -3.14104 362.291
lowerback 4.12601 -1.51203 -4.57825
upperback -1.26149 -2.2412 0.874877
thorax -3.40936 -1.00841 3.62734
lowerneck -12.6435 2.04121 2.55238
upperneck 36.5276 2.98168 -2.07393
head 14.8462 1.31017 -0.846301
rclavicle 2.3233e-014 2.22639e-014
rhumerus -42.9951 9.51679 -71.6987
rradius 57.8667
rwrist -73.6188
rhand -17.4146 5.12738
rfingers 7.12502
rthumb 8.83531 -24.6677
lclavicle 2.3233e-014 2.22639e-014
lhumerus -99.5288 -41.9395 142.824
lradius 82.4747
lwrist 20.471
lhand 15.1041 23.0662
lfingers 7.12502
lthumb 39.9496 48.3074
rfemur -56.7079 -1.42802 12.4624
rtibia 29.6679
rfoot -29.2577 -39.6062
rtoes 44.222
lfemur -19.3368 5.16453 -31.6765
ltibia 43.149
lfoot -35.6542 19.3844
ltoes -14.3137
785
root -0.20004 15.8963 -7.0523 9.89563 -2.63971 362.415
lowerback 3.64237 -1.74685 -4.67882
upperback -1.16885 -2.53479 0.851799
thorax -3.00938 -1.16592 3.65605
lowerneck -12.93 2.18154 2.57247
upperneck 36.558 3.1515 -1.99239
head 14.9322 1.39352 -0.785826
rclavicle -1.62258e-014 7.55382e-015
rhumerus -43.5584 10.8769 -71.7576
rradius 58.7968
rwrist -74.5363
rhand -15.5325 4.74848
rfingers 7.12502
rthumb 10.6511 -24.9616
lclavicle -1.62258e-014 7.55382e-015
lhumerus -100.783 -43.2532 143.711
lradius 84.5663
lwrist 20.9661
lhand 15.5257 22.6233
lfingers 7.12502
lthumb 40.3463 47.7439
rfemur -56.3015 0.201054 11.3154
rtibia 29.1965
rfoot -34.968 -37.5289
rtoes 47.5476
lfemur -18.3069 5.02993 -31.4457
ltibia 42.1489
lfoot -35.3777 19.2518
ltoes -14.3881
786
root -0.252052 15.9143 -6.90997 10.0082 -2.11897 362.562
lowerback 3.10817 -1.99817 -4.75172
upperback -1.13277 -2.84641 0.833531
thorax -2.63856 -1.33151 3.66942
lowerneck -13.0518 2.3188 2.57312
upperneck 36.4777 3.35339 -1.99025
head 14.929 1.47882 -0.750296
rclavicle -3.22528e-014 -1.15295e-014
rhumerus -44.1564 12.1588 -71.7704
rradius 59.62
rwrist -75.1954
rhand -14.0253 4.14622
rfingers 7.12502
rthumb 12.1047 -25.4836
lclavicle -3.22528e-014 -1.15295e-014
lhumerus -101.831 -44.4965 144.271
lradius 86.5543
lwrist 21.4114
lhand 16.2355 22.1718
lfingers 7.12502
lthumb 41.0133 47.084
rfemur -55.8866 1.65684 10.2549
rtibia 28.6329
rfoot -39.2567 -35.8555
rtoes 49.6686
lfemur -17.3106 4.83177 -31.2419
ltibia 41.1417
lfoot -35.1558 19.0398
ltoes -13.6064
